<svg width="700pt" height="700pt" version="1.1" viewBox="0 0 700 700" xmlns="http://www.w3.org/2000/svg" xmlns:xlink="http://www.w3.org/1999/xlink">
 <defs>
  <symbol id="w" overflow="visible">
   <path d="m0.03125 0h-0.015625-0.015625v-0.015625-0.015625h0.015625 0.015625-0.015625v0.015625 0.015625h0.015625v-0.015625z"/>
  </symbol>
  <symbol id="e" overflow="visible">
   <path d="m0.015625-0.015625v0.015625h-0.015625v-0.03125h0.015625v0.015625-0.015625z"/>
  </symbol>
  <symbol id="b" overflow="visible">
   <path d="m0.03125-0.015625h-0.015625v0.015625c0.0078125 0 0.015625-0.0039062 0.015625-0.015625v0.015625h-0.015625-0.015625v-0.015625l0.015625-0.015625v0.015625h0.015625z"/>
  </symbol>
  <symbol id="a" overflow="visible">
   <path d="m0.015625-0.015625v0.015625-0.015625zm0.015625 0v0.015625h-0.015625-0.015625v-0.015625h0.015625-0.015625v-0.015625h0.015625v0.015625h0.015625z"/>
  </symbol>
  <symbol id="d" overflow="visible">
   <path d="m0.015625-0.03125v0.015625 0.015625h-0.015625v-0.015625-0.015625z"/>
  </symbol>
  <symbol id="l" overflow="visible">
   <path d="m0.015625-0.015625v-0.015625h0.015625v0.03125h-0.015625-0.015625v-0.015625l0.015625-0.015625v0.015625zm0 0.015625v-0.015625 0.015625z"/>
  </symbol>
  <symbol id="k" overflow="visible">
   <path d="m0.015625 0v-0.015625 0.015625zm0-0.015625v-0.015625c0.0078125 0 0.015625 0.0078125 0.015625 0.015625v0.015625h-0.015625-0.015625v-0.03125h0.015625z"/>
  </symbol>
  <symbol id="j" overflow="visible">
   <path d="m0-0.03125h0.015625v0.015625-0.015625h0.015625l-0.015625 0.03125v0.015625h-0.015625v-0.015625h0.015625z"/>
  </symbol>
  <symbol id="i" overflow="visible">
   <path d="m0.015625-0.03125v0.015625 0.015625h0.015625v-0.015625c0-0.0078125-0.0078125-0.015625-0.015625-0.015625zm0 0h0.015625v0.015625 0.015625h-0.015625-0.015625v-0.015625-0.015625h0.015625z"/>
  </symbol>
  <symbol id="v" overflow="visible">
   <path d="m0-0.03125h0.015625v0.03125h-0.015625z"/>
  </symbol>
  <symbol id="f" overflow="visible">
   <path d="m0.03125-0.015625v0.015625h-0.015625v-0.015625 0.015625h-0.015625v-0.03125h0.015625v0.015625-0.015625c0.0078125 0 0.015625 0.0078125 0.015625 0.015625z"/>
  </symbol>
  <symbol id="h" overflow="visible">
   <path d="m0-0.03125h0.015625 0.015625v0.015625h-0.015625v0.015625h-0.015625zm0.015625 0v0.015625-0.015625z"/>
  </symbol>
  <symbol id="g" overflow="visible">
   <path d="m0.03125-0.03125v0.015625h-0.015625c0.0078125 0 0.015625 0.0078125 0.015625 0.015625h-0.015625-0.015625 0.015625v-0.015625h-0.015625l0.015625-0.015625h0.015625z"/>
  </symbol>
  <symbol id="c" overflow="visible">
   <path d="m0.015625-0.015625v0.015625-0.015625zm0-0.015625v0.015625h0.015625c0 0.011719-0.0078125 0.015625-0.015625 0.015625h-0.015625v-0.015625l0.015625-0.015625z"/>
  </symbol>
  <symbol id="u" overflow="visible">
   <path d="m0-0.03125h0.015625v0.015625-0.015625h0.015625l-0.015625 0.03125z"/>
  </symbol>
  <symbol id="t" overflow="visible">
   <path d="m0-0.03125h0.015625v0.015625-0.015625h0.015625l-0.015625 0.015625 0.015625 0.015625h-0.015625v-0.015625 0.015625h-0.015625z"/>
  </symbol>
  <symbol id="s" overflow="visible">
   <path d="m0.015625-0.03125v0.03125h-0.015625v-0.03125h0.015625z"/>
  </symbol>
  <symbol id="r" overflow="visible">
   <path d="m0.03125-0.015625v-0.015625c0.0078125 0 0.015625 0.0078125 0.015625 0.015625v0.015625h-0.015625v-0.015625 0.015625h-0.015625v-0.015625 0.015625h-0.015625v-0.03125h0.015625v0.015625-0.015625 0.015625h0.015625z"/>
  </symbol>
  <symbol id="q" overflow="visible">
   <path d="m0.03125-0.015625v0.015625h-0.015625v-0.015625 0.015625h-0.015625v-0.03125h0.015625v0.015625-0.015625c0.0078125 0 0.015625 0.0078125 0.015625 0.015625z"/>
  </symbol>
  <symbol id="p" overflow="visible">
   <path d="m0-0.03125h0.015625l0.015625 0.015625v-0.015625 0.03125l-0.015625-0.015625v0.015625h-0.015625z"/>
  </symbol>
  <symbol id="o" overflow="visible">
   <path d="m0-0.015625v-0.015625h0.015625v0.015625 0.015625-0.015625-0.015625h0.015625v0.03125h-0.015625-0.015625v-0.015625z"/>
  </symbol>
  <symbol id="n" overflow="visible">
   <path d="m0-0.03125h0.015625v0.03125h-0.015625v0.015625zm0 0h0.015625z"/>
  </symbol>
  <symbol id="m" overflow="visible">
   <path d="m0.03125-0.03125v0.015625h-0.015625v0.015625h0.015625-0.015625-0.015625v-0.015625l0.015625-0.015625h0.015625z"/>
  </symbol>
 </defs>
 <g>
  <path d="m353.96 229.47c12.301-0.35547 23.406-5.4805 31.527-13.598 1.7188-1.7188 3.293-3.5547 4.7227-5.5156 0.17578-0.39062 0.36328-0.79297 0.55078-1.1836l-39.285 7.6914c-0.36328 0.074219-0.72656 0.054688-1.0742-0.039062l-35.766-7.2812c0.12891 0.28906 0.26953 0.57031 0.40234 0.85938 1.418 1.9414 2.9883 3.7695 4.6836 5.4688 8.082 8.082 19.125 13.199 31.352 13.598 0.96094-0.027344 1.9219-0.027344 2.8828 0.007812zm36.27-24.949-22.766-65.613c-4.668-1.5664-9.6602-2.4258-14.859-2.4258-5.8789 0-11.5 1.0938-16.68 3.0781l-23.324 64.812 38.426 7.8203 39.199-7.6719zm-93.258 103.25 14.121 39.238 0.14844-0.027344c0.47656-0.73828 0.96094-1.457 1.4766-2.1562 0.96875-2.1914 1.7656-4.4609 2.3906-6.7773 2.5312-9.4531 2.1016-19.703-1.6992-29.223-1.2969-1.6992-2.5117-3.5-3.6016-5.4023l-0.19531-0.33594v-0.007812c-1.0625-1.8672-1.9883-3.7812-2.7812-5.7227-6.3672-8.1562-15.082-13.719-24.602-16.27-2.332-0.625-4.7227-1.0742-7.1289-1.3242-0.47656 0.046876-0.94141 0.09375-1.418 0.12109l22.848 27.039c0.22266 0.26172 0.375 0.55078 0.45703 0.85938zm15.707 43.652 23.641 65.688c5.1055 1.9336 10.641 2.9883 16.418 2.9883 5.0664 0 9.9492-0.8125 14.512-2.3164l23.055-66.445-39.359-7.7109-38.266 7.7852zm24.855 69.086 1.5117 4.1914c3.3125-1.0078 6.7773-1.6602 10.359-1.9141-4.1172-0.26953-8.0938-1.0547-11.871-2.2773zm4.0312 11.211 10.613 29.492 10.379-29.914c-3.1172-0.78516-6.3828-1.2031-9.7422-1.2031-3.9102 0-7.6797 0.57031-11.246 1.625zm23.438-7.4648 1.1094-3.1914c-3.2031 0.89453-6.5352 1.4844-9.957 1.7188 3.043 0.21484 6 0.71094 8.8555 1.4766zm27.645-79.668 12.984-37.418c0.10156-0.28906 0.25391-0.55078 0.44922-0.77344l23.324-26.637c-2.1016 0.26953-4.1719 0.67188-6.207 1.2227-9.9961 2.6797-19.105 8.6797-25.535 17.508-1.3906 3.2031-3.1367 6.2617-5.1992 9.1289-4.2188 9.8281-4.7773 20.496-2.1484 30.316 0.60547 2.2695 1.3906 4.5 2.332 6.6562zm41.402-70.141 46.668-53.293c-0.98047-4.7305-2.7266-9.3984-5.2734-13.812v-0.007813c-2.8672-4.9648-6.5156-9.2031-10.695-12.648l-68.375 13.383 13.41 38.648 24.266 27.711zm48.934-55.887 1.7344-1.9805c-1.2969-1.2773-2.5312-2.6328-3.6875-4.0781 0.79297 1.9883 1.4375 4.0117 1.9492 6.0586zm6.6562-7.5977 22.344-25.516-32.91 6.4414c0.86719 3.7344 2.2852 7.4023 4.3008 10.891h0.007812c1.7656 3.0625 3.8828 5.7969 6.2539 8.1836zm-17.875-17.641-3.5273 0.69141c1.9883 1.8008 3.8555 3.7812 5.5625 5.9375-0.84766-2.1836-1.5195-4.3945-2.0234-6.625zm-165.36 14.559-65.559-13.336c-4.3203 3.4922-8.0742 7.8125-11.023 12.906v0.007813c-2.6211 4.5469-4.3945 9.3633-5.3555 14.242l44.445 52.574 23.699-28.027 13.805-38.371zm-69.047-14.047-4.3125-0.87891c-0.57812 2.8359-1.4297 5.6367-2.5586 8.3906 2.0547-2.7812 4.3594-5.2812 6.8711-7.5117zm-11.609-2.3633-32.414-6.5977 22.129 26.18c2.1758-2.2695 4.1172-4.8359 5.7578-7.6797h0.007812c2.1914-3.8086 3.6875-7.8203 4.5156-11.91zm-5.4609 25.301 1.8945 2.25c0.59766-2.418 1.3711-4.8242 2.3516-7.1758-1.3164 1.7539-2.7344 3.4062-4.2578 4.9297zm129.73 252.21-12.832-35.672c-4.6836 2.0078-8.9141 4.8984-12.469 8.457-7.1875 7.1875-11.637 17.125-11.637 28.094h-0.019531c0 10.957 4.4531 20.898 11.648 28.094 7.1875 7.1875 17.125 11.637 28.094 11.637 10.977 0 20.906-4.4414 28.094-11.637 7.1875-7.1875 11.637-17.125 11.637-28.094 0-10.977-4.4414-20.906-11.637-28.094-3.9219-3.9219-8.6523-7.0273-13.926-9.043l-12.562 36.195c-0.21484 0.66406-0.71875 1.2227-1.4297 1.4766-1.2031 0.42969-2.5391-0.19531-2.9688-1.3984zm-15.363-42.699-2.8945-8.0469c-5.1992-2.4453-9.8945-5.7695-13.906-9.7734-8.9219-8.9219-14.438-21.254-14.438-34.859 0-4.4258 0.58984-8.7188 1.6797-12.797-2.9961 3.0039-6.4414 5.6758-10.285 7.8945l-0.33594 0.19531h-0.007812c-11.715 6.6445-25.004 7.9688-37.07 4.7305-5.7578-1.5391-11.238-4.125-16.137-7.6641l-7.457 1.5195c1 6.5039 0.59766 13.094-1.0742 19.328-3.125 11.656-10.695 22.121-21.988 28.645v0.007813c-11.293 6.5156-24.145 7.8477-35.812 4.7227-11.668-3.125-22.137-10.707-28.652-21.988v-0.019531c-6.5156-11.285-7.8398-24.145-4.7227-35.793 3.125-11.668 10.707-22.137 21.988-28.652h0.019531c11.285-6.5156 24.145-7.8398 35.793-4.7227 5.9062 1.5859 11.508 4.3125 16.445 8.0742l5.2812-6.2539c-0.57812-5.9375-0.074219-11.898 1.457-17.594 3.2656-12.188 11.18-23.129 22.969-29.934h0.007813c3.8359-2.2109 7.8477-3.8555 11.93-4.9453-4.1055-1.0938-8.1367-2.7422-11.992-4.9648h-0.007813c-11.789-6.8047-19.703-17.754-22.969-29.934-1.6055-5.9844-2.082-12.266-1.3516-18.508l-4.2656-5.0508c-5.2656 4.3477-11.367 7.4492-17.836 9.1836-11.348 3.043-23.836 1.8672-34.898-4.2109h-0.027344l-0.88672-0.51172c-11.285-6.5156-18.863-16.988-21.988-28.652-3.043-11.348-1.8672-23.836 4.2109-34.898v-0.027344l0.51172-0.88672c6.5156-11.285 16.988-18.863 28.652-21.988 11.656-3.125 24.508-1.793 35.793 4.7227h0.019531c11.285 6.5156 18.863 16.988 21.988 28.652 1.4766 5.5156 1.9609 11.301 1.3633 17.062l8.418 1.7188c4.6484-3.1914 9.7812-5.5352 15.168-6.9805 12.188-3.2656 25.621-1.875 37.406 4.9297 3.8359 2.2109 7.2617 4.8633 10.246 7.8477-1.1094-4.1055-1.6992-8.418-1.6992-12.871 0-13.617 5.5156-25.938 14.438-34.859 3.9375-3.9375 8.5508-7.2148 13.637-9.6523l2.6055-7.2539c-5.7305-2.3906-10.891-5.8789-15.223-10.211-8.5391-8.5391-13.824-20.336-13.824-33.375 0-13.031 5.2812-24.836 13.824-33.375 8.5391-8.5391 20.336-13.824 33.375-13.824 13.031 0 24.836 5.2812 33.375 13.824 8.5391 8.5391 13.824 20.336 13.824 33.375 0 13.031-5.2812 24.836-13.824 33.375-4.4531 4.4531-9.7891 8.0156-15.719 10.414l2.1484 6.1875c5.8438 2.4922 11.105 6.0742 15.531 10.508 8.9219 8.9219 14.438 21.254 14.438 34.859 0 4.4258-0.58984 8.7188-1.6797 12.797 2.9961-3.0039 6.4414-5.6758 10.285-7.8945l0.33594-0.19531h0.007813c11.715-6.6445 25.004-7.9688 37.07-4.7305 5.5156 1.4766 10.781 3.9102 15.52 7.2227l7.5117-1.4766c-0.75781-6.0742-0.30859-12.199 1.25-18.023 3.125-11.656 10.695-22.121 21.988-28.645v-0.007812c11.293-6.5156 24.145-7.8477 35.812-4.7227 11.668 3.125 22.137 10.707 28.652 21.988v0.019531c6.5156 11.285 7.8398 24.145 4.7227 35.793-3.125 11.668-10.707 22.137-21.988 28.652h-0.019531c-11.285 6.5156-24.145 7.8398-35.793 4.7227-6.2891-1.6875-12.234-4.668-17.398-8.8203l-4.1055 4.6953c0.8125 6.4023 0.34375 12.852-1.2969 18.984-3.2656 12.188-11.18 23.129-22.969 29.934h-0.007812c-3.8359 2.2109-7.8477 3.8555-11.93 4.9453 4.1055 1.0938 8.1367 2.7422 11.992 4.9648h0.007812c11.789 6.8047 19.703 17.754 22.969 29.934 1.6055 6 2.0898 12.312 1.3438 18.582l4.6289 5.293c5.0977-4.0312 10.93-6.9336 17.098-8.5859 11.348-3.043 23.836-1.8672 34.898 4.2109h0.027344l0.88672 0.51172c11.285 6.5156 18.863 16.988 21.988 28.652 3.043 11.348 1.8672 23.836-4.2109 34.898v0.027343l-0.51172 0.88672c-6.5156 11.285-16.988 18.863-28.652 21.988-11.656 3.125-24.508 1.793-35.793-4.7227h-0.019531c-11.285-6.5156-18.863-16.988-21.988-28.652-1.6445-6.1328-2.0547-12.59-1.1289-18.984l-7.2539-1.418c-4.9102 3.5547-10.406 6.1523-16.184 7.6992-12.188 3.2656-25.621 1.875-37.406-4.9297-3.8359-2.2109-7.2617-4.8711-10.246-7.8594 1.1094 4.1055 1.6992 8.418 1.6992 12.871h0.007813c0 13.617-5.5156 25.938-14.438 34.859-4.5156 4.5156-9.9023 8.1562-15.887 10.66l-2.2773 6.5508c6.3555 2.3906 12.051 6.1055 16.762 10.809 8.5391 8.5391 13.824 20.336 13.824 33.375 0 13.031-5.2812 24.836-13.824 33.375-8.5391 8.5391-20.336 13.824-33.375 13.824-13.031 0-24.836-5.2812-33.375-13.824-8.5312-8.5312-13.812-20.328-13.812-33.375h-0.019531c0-13.031 5.2812-24.836 13.824-33.375 4.3203-4.3203 9.4844-7.8125 15.223-10.203zm-4.2734-11.891-20.871-58.008c-2.1172 5.3203-3.2852 11.125-3.2852 17.211 0 12.844 5.207 24.473 13.617 32.883 3.1094 3.1094 6.6562 5.7773 10.539 7.9141zm-22.25-61.844-0.066406-0.1875-62.98 12.816c4.043 2.5859 8.4453 4.5078 13.039 5.7383 11.5 3.0781 24.172 1.7734 35.289-4.6367h0.007813c5.7969-3.3398 10.594-7.7461 14.297-12.824 0.14062-0.29688 0.26953-0.60547 0.41016-0.90625zm-1.6602-4.6016-13.793-38.332-23.781-28.129-44.539 52.688c0.92578 5.1719 2.7422 10.277 5.5156 15.082v0.007813c2.7422 4.75 6.207 8.8398 10.164 12.199l66.426-13.516zm-41.402-71-41.41-48.992c-0.28906 5.0039 0.23438 9.9883 1.5117 14.785 3.0781 11.5 10.547 21.82 21.672 28.242 5.7852 3.3398 11.984 5.293 18.227 5.9648zm-53.031-62.738-26.59-31.453c-0.44922-0.52344-0.65234-1.2422-0.50391-1.9688 0.26172-1.2617 1.4844-2.0703 2.7422-1.8125l38.715 7.8789c0.38281-4.6094-0.046875-9.2227-1.2227-13.637-2.6328-9.8281-9.0156-18.648-18.516-24.125v-0.007813c-9.5-5.4805-20.328-6.5898-30.156-3.957-9.8203 2.6328-18.637 9.0078-24.125 18.508v0.007813c-5.4805 9.5-6.5977 20.328-3.9648 30.156 2.6328 9.8203 9.0078 18.637 18.508 24.125h0.007813c9.5 5.4805 20.328 6.5977 30.156 3.9648 5.4219-1.457 10.527-4.043 14.953-7.6719zm34.059-23.352 61.602 12.535-0.09375-0.19531c-3.6289-4.957-8.3086-9.2695-13.926-12.582l-0.33594-0.19531c-11.117-6.4219-23.789-7.7266-35.289-4.6367-4.1914 1.1211-8.2148 2.8281-11.957 5.0781zm151.56 12.219 61.863-12.113c-3.8438-2.3633-8-4.1328-12.32-5.293-11.5-3.0781-24.172-1.7734-35.289 4.6367h-0.007812c-5.7695 3.332-10.547 7.7109-14.242 12.758zm80.629-15.781 39.488-7.7266v0.007813c0.67969-0.12891 1.418 0.039062 1.9805 0.53125 0.96875 0.84766 1.0625 2.3164 0.21484 3.2852l-26.871 30.68c4.293 3.3984 9.2031 5.8438 14.402 7.2344 9.8281 2.6328 20.656 1.5195 30.156-3.957v-0.007812c9.5-5.4883 15.887-14.309 18.516-24.125 2.6328-9.8281 1.5195-20.656-3.957-30.156h-0.007812c-5.4883-9.5-14.309-15.887-24.125-18.516-9.8281-2.6328-20.656-1.5195-30.156 3.9648h-0.019532c-9.4922 5.4805-15.867 14.297-18.5 24.125-1.2695 4.7422-1.6719 9.7148-1.1289 14.664zm3.2656 39.957-43.289 49.43c0.64453 0.039062 1.2891 0.09375 1.9336 0.16016 6.2344-0.67188 12.434-2.6328 18.211-5.9648 11.125-6.4219 18.594-16.742 21.672-28.242 1.3359-4.9844 1.8477-10.184 1.4766-15.383zm-47.508 54.254-24.184 27.617-13.422 38.688 68.945 13.496c3.9375-3.3516 7.375-7.4219 10.109-12.152v-0.007813c2.6133-4.5352 4.3867-9.3242 5.3477-14.188l-46.809-53.453zm-39.609 72.09-21.477 61.891c4.7148-2.2773 8.9883-5.3398 12.648-8.9961 8.418-8.418 13.617-20.039 13.617-32.883h0.007813c0-6.6914-1.418-13.066-3.9648-18.816-0.28125-0.39062-0.55859-0.79297-0.83203-1.1836zm0.066406-150.9c0.21484-0.31641 0.4375-0.625 0.66406-0.93359 2.5312-5.7383 3.9375-12.086 3.9375-18.762 0-12.844-5.207-24.473-13.617-32.883-3.5664-3.5664-7.7109-6.5625-12.281-8.8203l21.297 61.395zm-64.52-60.34c-3.7812 2.1094-7.2227 4.7227-10.258 7.7578-8.418 8.418-13.617 20.039-13.617 32.883 0 5.9648 1.1211 11.676 3.1719 16.91l20.711-57.551zm6.5352-18.152 13.43-37.324c0.42969-1.2031 1.7656-1.8398 2.9688-1.3984 0.69922 0.25391 1.2148 0.8125 1.4297 1.4766l12.992 37.438c4.8633-2.0156 9.2305-4.9648 12.898-8.625 7.1875-7.1875 11.637-17.125 11.637-28.094 0-10.977-4.4414-20.906-11.637-28.094-7.1875-7.1875-17.125-11.637-28.094-11.637-10.977 0-20.906 4.4414-28.094 11.637-7.1875 7.1875-11.637 17.125-11.637 28.094 0 10.977 4.4414 20.906 11.637 28.094 3.5547 3.5547 7.7852 6.4414 12.48 8.4453zm102.2 155.58 42.934 49.039c0.31641-5.0586-0.20703-10.109-1.5039-14.953-3.0781-11.5-10.547-21.82-21.672-28.242-5.7969-3.3516-12.012-5.3008-18.273-5.9727-0.49609 0.046874-1 0.09375-1.4922 0.12891zm55.031 62.852 26.145 29.855c0.84766 0.96875 0.74609 2.4375-0.21484 3.2852-0.55859 0.49609-1.2969 0.66406-1.9805 0.53125v0.007813l-38.938-7.625c-0.71094 5.2656-0.34375 10.574 1.0078 15.625 2.6328 9.8281 9.0156 18.648 18.516 24.125v0.007812c9.5 5.4805 20.328 6.5898 30.156 3.957 9.8203-2.6328 18.637-9.0078 24.125-18.508v-0.007813c5.4805-9.5 6.5977-20.328 3.9648-30.156-2.6328-9.8203-9.0078-18.637-18.508-24.125h-0.007813c-9.5-5.4805-20.328-6.5977-30.156-3.9648-5.0781 1.3633-9.8828 3.7227-14.102 7zm-33.434 22.438-62.906-12.32c0.10156 0.21484 0.19531 0.42969 0.29688 0.64453 3.6289 4.9648 8.3086 9.2773 13.934 12.59l0.33594 0.19531c11.117 6.4219 23.789 7.7266 35.289 4.6367 4.5938-1.2305 9.0078-3.1641 13.047-5.75zm-233.82 3.9023-38.883 7.9141c-1.2617 0.26172-2.4844-0.55859-2.7422-1.8125-0.14844-0.72656 0.054687-1.4375 0.50391-1.9688l25.609-30.305c-4.0898-3.0508-8.6875-5.2734-13.551-6.5703-9.8281-2.6328-20.656-1.5195-30.156 3.957v0.007812c-9.5 5.4883-15.887 14.309-18.516 24.125-2.6328 9.8281-1.5195 20.656 3.957 30.156h0.007812c5.4883 9.5 14.309 15.887 24.125 18.516 9.8281 2.6328 20.656 1.5195 30.156-3.9648h0.019532c9.4922-5.4805 15.867-14.297 18.5-24.125 1.3828-5.1445 1.7266-10.566 0.96875-15.922zm-2.8203-41.199 40.488-47.898c-5.9062 0.76562-11.77 2.6875-17.258 5.8516-11.125 6.4219-18.594 16.742-21.672 28.242-1.2031 4.4805-1.7344 9.1289-1.5586 13.805zm128.41-233.14-11.211 31.145c3.5664 1.0547 7.3359 1.6133 11.246 1.6133 3.7422 0 7.375-0.52344 10.809-1.4844l-10.844-31.266zm-13.738 38.184-1.2031 3.3516c2.4922-0.82031 5.0664-1.4453 7.7188-1.8672-2.2305-0.34375-4.4062-0.83984-6.5156-1.4844zm-27.496 76.422-13.973 38.836c-0.085938 0.30859-0.24219 0.59766-0.45703 0.85938l-23.531 27.84c0.72656 0.039062 1.457 0.09375 2.1758 0.16797 2.3906-0.26172 4.7617-0.69922 7.0742-1.3242 10.035-2.6875 19.172-8.7188 25.602-17.602 1.2969-2.8008 2.8672-5.4961 4.6836-8.0352 4.6211-10.109 5.3125-21.168 2.5938-31.324-0.625-2.332-1.4297-4.6211-2.4062-6.832-0.61719-0.84766-1.1953-1.7188-1.7539-2.5938zm-88.789 127.66-2.707 3.2031c2.3711 2.2227 4.5469 4.7031 6.457 7.457-1.6875-3.4609-2.9297-7.0391-3.7539-10.66zm-7.5234 8.9023-21.289 25.18 32.32-6.5781c-0.87891-3.3125-2.2031-6.5703-4.0039-9.6797h-0.007812c-1.9492-3.3867-4.332-6.375-7.0273-8.9336zm18.332 17.125 3.7539-0.76562c-2.5742-2.3906-4.9297-5.0859-6.9922-8.0742 1.3906 2.875 2.4727 5.8438 3.2383 8.8398zm82.293-16.742 35.148-7.1484c0.33594-0.09375 0.69922-0.11328 1.0742-0.039062l39.117 7.6641c-0.074219-0.14844-0.14062-0.29688-0.20703-0.45703-1.418-1.9414-2.9883-3.7695-4.6836-5.4688-6.9141-6.9141-16.008-11.668-26.16-13.141-4.5625 0.65234-9.1562 0.65234-13.656 0.027344-10.062 1.5039-19.078 6.2344-25.945 13.105-1.6992 1.6992-3.2578 3.5195-4.6758 5.4609zm153.67 15.801 3.4922 0.67969c0.625-2.5 1.457-4.9844 2.5117-7.4102-1.8125 2.4531-3.8281 4.6953-6 6.7188zm10.809 2.1172 32.258 6.3203-21.645-24.723c-2.4922 2.4531-4.6953 5.2812-6.5352 8.457h-0.007812c-1.8477 3.2031-3.1914 6.543-4.0703 9.957zm5.6914-24.023-2.1914-2.5c-0.67188 2.7539-1.5859 5.4688-2.7617 8.1289 1.5195-2.0234 3.1719-3.9023 4.9453-5.6289zm-55.395-63.27-23.949-27.348c-0.19531-0.22266-0.34375-0.47656-0.44922-0.77344l-12.844-37.008-0.074218 0.10156c-0.96875 2.1914-1.7656 4.4609-2.3906 6.7773-2.9219 10.891-1.9023 22.84 3.668 33.516 0.42969 0.67188 0.84766 1.3516 1.25 2.043v0.007812c0.33594 0.57812 0.65234 1.1562 0.96094 1.7461 6.4688 10.004 16.223 16.762 27 19.648 2.2305 0.59766 4.5078 1.0273 6.8047 1.2969zm-63.617-141.18-0.92578-2.6602c-1.8008 0.52344-3.6484 0.95312-5.5352 1.2617 2.2031 0.32812 4.3594 0.79297 6.457 1.3984zm-238.34 18.684c-0.85937 1.5312 0.22266 3.4258 1.9688 3.4727 0.87891 0.019532 1.6602-0.42969 2.1016-1.1953l0.23438-0.41016 0.80078-1.4102 0.8125-1.3984 0.82031-1.3906 0.71875-1.2031c0.98047-1.6602-0.35547-3.7227-2.2773-3.5078-0.72656 0.085937-1.3516 0.49609-1.7344 1.1289l-0.71875 1.2031-0.83984 1.418-0.83203 1.4297-0.82031 1.4297-0.25391 0.4375zm-2.4375 14.543c0.72656-1.4844-0.25391-3.2188-1.9023-3.3594-0.95312-0.066406-1.8477 0.42969-2.2773 1.2891l-0.77344 1.5664-0.71094 1.4648-0.57031 1.2031c-0.52344 1.1094-0.10156 2.4375 0.96875 3.0352 1.1953 0.66406 2.6602 0.1875 3.2578-1.0352l0.55859-1.1758 0.69922-1.4375 0.76563-1.5508zm-7.6055 16.848c0.69141-1.7344-0.8125-3.5273-2.6523-3.1562-0.76562 0.16797-1.3828 0.67969-1.6797 1.4102l-0.26172 0.63281-0.59766 1.4922-0.58984 1.4922-0.29688 0.76562c-0.41016 1.1016 0.027343 2.3164 1.0625 2.8828 1.2422 0.67188 2.7891 0.10156 3.293-1.2148l0.28906-0.73828 0.57812-1.4648 0.58984-1.4648 0.26172-0.63281zm-6.3477 17.359c0.55859-1.7734-1.0742-3.4609-2.8672-2.957-0.75781 0.22266-1.3359 0.78516-1.5859 1.5312l-0.30859 0.94141-0.47656 1.5117-0.46484 1.5117-0.16016 0.53125c-0.30859 1.0273 0.12109 2.1172 1.0469 2.668 1.3164 0.77344 2.9883 0.12109 3.4258-1.3359l0.14844-0.50391 0.45703-1.4844 0.46484-1.4844 0.30859-0.94141zm-5.0391 17.789c0.29688-1.25-0.46484-2.5-1.7188-2.8086-1.2617-0.30859-2.5195 0.45703-2.8281 1.7266l-0.26172 1.0625-0.36328 1.5312-0.35547 1.5312-0.10156 0.46484c-0.40234 1.8477 1.4297 3.3711 3.1836 2.6523 0.71094-0.29688 1.2148-0.89453 1.3828-1.6523l0.09375-0.4375 0.34375-1.5039 0.35547-1.5039 0.26172-1.0625zm-3.707 18.117c0.30859-1.9492-1.7734-3.3789-3.4805-2.3906-0.60547 0.35547-1.0156 0.95312-1.1289 1.6445l-0.16797 1.0156-0.24219 1.5391-0.23437 1.5391-0.085938 0.55859c-0.19531 1.418 0.88672 2.6602 2.3242 2.6602 1.1562-0.007812 2.1367-0.85937 2.2969-2.0078l0.074218-0.53125 0.23438-1.5117 0.24219-1.5117 0.16797-1.0156zm-2.3438 18.34c0.16016-1.9688-2.0078-3.2305-3.6484-2.1289-0.57812 0.41016-0.93359 1.0156-1 1.7188l-0.074218 0.83984-0.12891 1.5391-0.12109 1.5391-0.054688 0.77344c-0.054688 0.8125 0.30859 1.5859 0.96875 2.0625 1.4922 1.0547 3.5469 0.085938 3.6875-1.7344l0.054688-0.74609 0.12109-1.5117 0.12891-1.5117 0.074218-0.83984zm-0.98047 18.469c0.019531-1.8477-2.0078-2.9883-3.5742-2.0078-0.67188 0.42969-1.0742 1.1367-1.0938 1.9414l-0.007812 0.55078-0.019532 1.5391-0.007812 1.5391v1.082c0.007812 1.8945 2.1641 2.9883 3.707 1.875 0.61719-0.44922 0.96094-1.1367 0.96094-1.8945v-1.0547l0.007812-1.5117 0.019531-1.5117 0.007813-0.55078zm0.38281 18.488c-0.11328-1.875-2.2695-2.8477-3.7539-1.707-0.61719 0.47656-0.94141 1.2031-0.90625 1.9805l0.007813 0.17578 0.09375 1.5312 0.10156 1.5312 0.10156 1.457c0.14062 1.7266 2.043 2.7148 3.5273 1.8203 0.75781-0.46484 1.1836-1.2891 1.1211-2.1758l-0.10156-1.4297-0.10156-1.5039-0.09375-1.5039-0.007812-0.17578zm1.7461 18.395c-0.11328-0.80078-0.625-1.4922-1.3711-1.8203-1.6797-0.72656-3.4922 0.64453-3.2461 2.4531l0.16797 1.2695 0.21484 1.5195 0.22266 1.5117 0.054688 0.36328c0.16016 1.0273 0.96875 1.8125 1.9883 1.9492 1.5586 0.20703 2.8555-1.1211 2.6211-2.668l-0.046875-0.33594-0.21484-1.4922-0.20703-1.4922-0.16797-1.2695zm3.0977 18.238c-0.31641-1.4648-1.875-2.25-3.2383-1.6445-1 0.45703-1.5508 1.5312-1.3242 2.6133l0.16797 0.8125 0.31641 1.4922 0.32813 1.4922 0.17578 0.80078c0.41016 1.7656 2.5586 2.4062 3.8828 1.168 0.59766-0.57812 0.84766-1.3984 0.67188-2.2109l-0.17578-0.77344-0.32812-1.4648-0.31641-1.4648-0.16797-0.8125zm4.4258 17.957c-0.24219-0.83984-0.91406-1.457-1.7656-1.6445-1.7266-0.34375-3.1914 1.2305-2.7148 2.9297l0.09375 0.34375 0.42969 1.4648 0.4375 1.4648 0.375 1.2305c0.51172 1.6523 2.5586 2.1914 3.8281 1.0156 0.65234-0.61719 0.89453-1.5312 0.63281-2.3906l-0.36328-1.2031-0.42969-1.4375-0.42188-1.4453-0.09375-0.34375zm5.7227 17.574c-0.69141-1.8203-3.1562-2.0547-4.1797-0.40234-0.375 0.625-0.44922 1.3516-0.19531 2.0352l0.49609 1.3242 0.54297 1.4375 0.55078 1.4297 0.085937 0.21484c0.61719 1.5508 2.5859 1.9805 3.7891 0.82031 0.67969-0.66406 0.89453-1.6445 0.55078-2.5312l-0.074219-0.1875-0.54297-1.3984-0.53125-1.4102-0.49609-1.3242zm7 17.117c-0.8125-1.7539-3.2656-1.8281-4.1797-0.12109-0.34375 0.64453-0.36328 1.3984-0.066407 2.0625l0.40234 0.88672 0.64453 1.3906 0.65234 1.3906 0.28906 0.59766c0.51172 1.0742 1.7734 1.5977 2.8945 1.1836 1.3086-0.47656 1.9141-1.9492 1.3164-3.2031l-0.26953-0.57812-0.63281-1.3633-0.63281-1.3711-0.40234-0.88672zm8.2422 16.559c-0.625-1.1367-2.0625-1.5508-3.1914-0.91406-1.1211 0.63281-1.5117 2.0234-0.89453 3.1562l0.28125 0.50391 0.74609 1.3438 0.75781 1.3438 0.52344 0.91406c0.86719 1.5039 2.9883 1.5781 3.9648 0.14062 0.49609-0.74609 0.53125-1.6797 0.085938-2.4531l-0.50391-0.88672-0.73828-1.3164-0.72656-1.3242-0.28125-0.50391zm9.4453 15.902c-0.95312-1.4648-3.1172-1.4102-3.9844 0.11328-0.42969 0.76562-0.41016 1.6797 0.066406 2.4258l0.12891 0.20703 0.83984 1.2969 0.84766 1.2891 0.76563 1.1367c0.76562 1.1211 2.2969 1.3711 3.3711 0.54297 0.96094-0.75781 1.1836-2.1172 0.50391-3.1445l-0.74609-1.1211-0.83984-1.2695-0.83203-1.2695-0.12891-0.20703zm10.594 15.156c-0.52344-0.67969-1.3438-1.0273-2.1914-0.90625-1.7539 0.26172-2.5938 2.2969-1.5312 3.7148l0.94141 1.2422 0.95312 1.2305 0.98828 1.2695c0.51172 0.63281 1.2773 0.95312 2.0898 0.86719 1.8203-0.22266 2.6992-2.332 1.5586-3.7695l-0.96094-1.2305-0.93359-1.2148-0.92578-1.2148zm11.676 14.316c-1.2891-1.4297-3.6289-0.80078-4.0312 1.082-0.14062 0.72656 0.046875 1.457 0.54297 2.0156l0.94141 1.0625 1.0469 1.168 1.0547 1.1562 0.10156 0.11328c0.55078 0.58984 1.3359 0.84766 2.1289 0.71875 1.8203-0.33594 2.5469-2.5195 1.3086-3.8828l-1.1211-1.2305-1.0273-1.1484-0.94141-1.0625zm12.723 13.422c-1.2422-1.1836-3.2773-0.69922-3.8359 0.92578-0.28906 0.85938-0.066406 1.793 0.58984 2.4258l1.0352 1.0078 1.1367 1.0938 1.2148 1.1562c0.90625 0.83984 2.2773 0.83984 3.1836 0 0.98828-0.93359 0.98828-2.4844 0-3.4141l-1.1758-1.1211-1.1211-1.0742-1.0352-1.0078zm13.691 12.449c-1.3242-1.1094-3.3516-0.44922-3.7695 1.2305-0.20703 0.86719 0.085937 1.7539 0.76562 2.3438l1.2891 1.082 1.2305 1.0156 1.1094 0.90625c1.0469 0.83984 2.5586 0.64453 3.3594-0.4375 0.73828-1.0078 0.55078-2.3984-0.42188-3.1836l-1.082-0.88672-1.2148-1-1.2695-1.0625zm14.559 11.387c-1.4648-1.0547-3.5078-0.12109-3.6875 1.6797-0.074218 0.83203 0.28125 1.6133 0.96094 2.1094l0.41016 0.29688 1.3164 0.94141 1.3242 0.93359 0.78516 0.55078c1.0273 0.71094 2.4258 0.48438 3.1836-0.50391 0.80078-1.0625 0.57031-2.5742-0.53125-3.332l-0.76562-0.53125-1.2969-0.91406-1.2891-0.92578-0.41016-0.29688zm15.363 10.285c-1.1367-0.69141-2.6328-0.29688-3.2656 0.87891-0.58984 1.1016-0.23438 2.4531 0.83203 3.1094l1.0352 0.63281 1.3984 0.84766 1.4102 0.84766 0.17578 0.10156c1.3828 0.79297 3.1094 0.039063 3.4609-1.5117 0.21484-1-0.22266-1.9961-1.1016-2.5117l-0.16016-0.09375-1.3906-0.83203-1.3828-0.83984-1.0352-0.63281zm16.082 9.1484c-1.4844-0.76562-3.2461 0.20703-3.3984 1.8672-0.074219 0.95312 0.41016 1.8281 1.25 2.2695l0.42187 0.21484 1.457 0.74609 1.457 0.73828 0.86719 0.4375c1.4844 0.72656 3.2188-0.25391 3.3594-1.9023 0.066406-0.95312-0.42969-1.8477-1.2891-2.2773l-0.84766-0.42188-1.4297-0.72656-1.4297-0.73828-0.42188-0.21484zm16.688 7.9531c-1.7188-0.72656-3.5547 0.74609-3.2109 2.5859 0.14844 0.76562 0.65234 1.3906 1.3711 1.707l1.0078 0.4375 1.4844 0.625 1.4844 0.61719 0.36328 0.14844c1.7344 0.69141 3.5273-0.8125 3.1562-2.6523-0.16797-0.76562-0.67969-1.3828-1.4102-1.6797l-0.33594-0.14062-1.457-0.60547-1.457-0.61719-1.0078-0.4375zm17.23 6.7031c-0.78516-0.26953-1.625-0.10156-2.2578 0.42969-1.3828 1.1836-0.96094 3.3984 0.75781 3.9844l1.3828 0.47656 1.5039 0.50391 1.5781 0.52344c1.7734 0.55859 3.4609-1.0742 2.957-2.8672-0.22266-0.75781-0.78516-1.3359-1.5312-1.5859l-1.5195-0.50391-1.4844-0.49609-1.3828-0.47656zm17.695 5.4141c-1.2227-0.31641-2.4727 0.375-2.8359 1.5859-0.38281 1.2695 0.36328 2.5859 1.6328 2.9297l1.5781 0.41016 1.5195 0.39062 1.4648 0.36328c1.0625 0.26172 2.1562-0.24219 2.6406-1.2227 0.66406-1.3438-0.074218-2.9492-1.5312-3.3047l-1.4375-0.35547-1.4922-0.38281-1.5508-0.40234zm18.031 4.0781c-1.875-0.34375-3.3516 1.5664-2.5391 3.293 0.32812 0.67969 0.94141 1.1484 1.6797 1.2891l1.5781 0.28906 1.5391 0.26953 1.5195 0.26172c0.82031 0.12891 1.6328-0.16016 2.1758-0.80078 1.1562-1.3828 0.38281-3.5-1.3984-3.8086l-1.4922-0.25391-1.5117-0.26953-1.5508-0.28906zm18.273 2.7266c-1.9023-0.1875-3.2188 1.8398-2.2578 3.5 0.38281 0.64453 1.0273 1.0625 1.7656 1.1367l1.418 0.16016 1.5391 0.16016 1.7188 0.16797c1.9688 0.16016 3.2305-2.0078 2.1289-3.6484-0.41016-0.57812-1.0156-0.93359-1.7188-1l-1.6602-0.16016-1.5117-0.16016-1.418-0.16016zm18.441 1.3633c-0.85938-0.027343-1.6445 0.41016-2.082 1.1367-0.89453 1.5391 0.16016 3.4531 1.9336 3.5195l1.1562 0.039063 1.5391 0.046875 1.5391 0.039062 0.46484 0.007813c1.8477 0.019531 2.9883-2.0078 2.0078-3.5742-0.42969-0.67188-1.1367-1.0742-1.9414-1.0938l-0.4375-0.007812-1.5117-0.039063-1.5117-0.046875-1.1562-0.039062zm18.488-0.007812c-1.8398 0.085938-2.8555 2.1367-1.8281 3.6602 0.46484 0.66406 1.2031 1.0352 2.0156 1.0078l0.8125-0.027344 1.5391-0.066406 1.5312-0.074219 0.82031-0.046875c1.875-0.11328 2.8477-2.2695 1.707-3.7539-0.47656-0.61719-1.2031-0.94141-1.9805-0.90625l-0.79297 0.046875-1.5039 0.074218-1.5117 0.066407-0.8125 0.027343zm18.441-1.3711c-1.8555 0.21484-2.7266 2.3984-1.5117 3.8359 0.51172 0.58984 1.2617 0.89453 2.0352 0.80078l0.40234-0.046875 1.5195-0.17578 1.5195-0.1875 1.2305-0.16016c1.6445-0.22266 2.5391-2.0156 1.7266-3.4727-0.47656-0.82031-1.3906-1.2773-2.332-1.1562l-1.2031 0.16016-1.4922 0.1875-1.4922 0.17578-0.40234 0.046875zm18.285-2.7148c-1.8555 0.36328-2.5391 2.6602-1.1758 3.9766 0.55859 0.52344 1.2969 0.74609 2.0547 0.60547l1.4453-0.26953 3.0078-0.59375 0.16797-0.039062c1.4648-0.31641 2.25-1.875 1.6445-3.2383-0.45703-1-1.5312-1.5508-2.6133-1.3242l-1.6133 0.32812-1.4766 0.28906-1.4453 0.26953zm18.043-4.0586c-1.7812 0.47656-2.3242 2.7266-0.96875 3.9766 0.59766 0.54297 1.3984 0.73828 2.1758 0.53125l0.96875-0.26172 1.4766-0.40234 1.4766-0.41016 0.61719-0.17578c0.83984-0.24219 1.457-0.91406 1.6445-1.7656 0.34375-1.7266-1.2305-3.1914-2.9297-2.7148l-0.58984 0.16797-1.4453 0.40234-1.4453 0.39062-0.96875 0.26172zm17.695-5.3672c-0.77344 0.26953-1.3359 0.90625-1.5117 1.6992-0.38281 1.793 1.3164 3.293 3.043 2.707l0.51172-0.17578 1.4453-0.50391 1.4453-0.51172 1.0352-0.375c1.5664-0.57812 2.0352-2.5391 0.91406-3.7695-0.65234-0.69141-1.625-0.93359-2.5195-0.60547l-1.0156 0.36328-1.418 0.50391-1.418 0.49609-0.51172 0.17578zm17.258-6.6562c-1.6875 0.72656-1.9141 3.0352-0.39063 4.0781 0.67188 0.44922 1.4922 0.53125 2.2305 0.21484l1.4922-0.64453 1.3984-0.61719 1.4297-0.63281c1.7539-0.8125 1.8281-3.2656 0.12109-4.1797-0.64453-0.34375-1.3984-0.36328-2.0625-0.066406l-1.3711 0.61719-1.3828 0.60547-1.4648 0.63281zm16.707-7.8945c-1.457 0.77344-1.6875 2.7344-0.44922 3.8281 0.73828 0.63281 1.7656 0.75781 2.6211 0.30859l1.0625-0.55859 1.3633-0.71875 1.3516-0.72656 0.375-0.20703c1.1367-0.625 1.5508-2.0625 0.91406-3.1914-0.63281-1.1211-2.0234-1.5117-3.1562-0.89453l-0.35547 0.19531-2.6719 1.4219-1.0625 0.55859zm16.09-9.1094c-0.71094 0.44922-1.1211 1.2148-1.1016 2.0547 0.054688 1.8008 2.0352 2.8555 3.5664 1.9141l0.72656-0.44922 1.3086-0.82031 1.3086-0.83203 0.64453-0.41016c1.4648-0.95312 1.4102-3.1172-0.11328-3.9844-0.76562-0.42969-1.6797-0.41016-2.4258 0.066407l-0.625 0.40234-1.2773 0.8125-1.2891 0.80078-0.72656 0.44922zm15.371-10.277c-0.87891 0.64453-1.1953 1.793-0.77344 2.8008 0.58984 1.3828 2.3047 1.8555 3.5195 0.98047l0.47656-0.34375 1.25-0.91406 1.25-0.92578 0.82031-0.61719c0.67969-0.52344 1.0156-1.3438 0.90625-2.1914-0.26172-1.7539-2.2969-2.5938-3.7148-1.5312l-0.79297 0.59766-1.2227 0.90625-1.2305 0.89453-0.47656 0.34375zm14.57-11.387c-0.79297 0.67188-1.0469 1.7656-0.63281 2.7148 0.64453 1.4297 2.4453 1.8477 3.6484 0.84766l0.32812-0.26953 2.3672-2.0312 0.87891-0.76562c1.2969-1.1484 0.94141-3.2578-0.66406-3.9219-0.83203-0.32812-1.7461-0.16797-2.418 0.41016l-0.85938 0.74609-2.3359 2-0.32812 0.26953zm13.684-12.441c-0.60547 0.59766-0.83203 1.4453-0.61719 2.2695 0.47656 1.7266 2.6055 2.3047 3.8906 1.0625l0.28125-0.28125 1.1211-1.1094 1.1094-1.1211 0.8125-0.83203c1.3164-1.3516 0.57812-3.6211-1.2891-3.9375-0.75781-0.12109-1.5039 0.12109-2.043 0.67187l-0.79297 0.80078-1.0938 1.0938-1.1016 1.0938-0.28125 0.28125zm12.711-13.422c-1.1836 1.3633-0.45703 3.4805 1.3242 3.8281 0.82031 0.14844 1.6328-0.12891 2.1836-0.75781l0.36328-0.41016 1.0469-1.2031 1.0352-1.2031 0.63281-0.74609c1.1094-1.3242 0.44922-3.3516-1.2305-3.7695-0.86719-0.20703-1.7539 0.085938-2.3438 0.76563l-0.61719 0.71875-1.0156 1.1836-1.0273 1.1758-0.36328 0.41016zm11.684-14.328c-0.65234 0.87891-0.61719 2.082 0.09375 2.9102 0.96875 1.1367 2.7422 1.082 3.6406-0.11328l0.55078-0.72656 0.96094-1.2891 0.95312-1.2969 0.33594-0.46484c1.0547-1.4648 0.12109-3.5078-1.6797-3.6875-0.83203-0.074219-1.6133 0.28125-2.1094 0.96094l-0.31641 0.4375-0.94141 1.2773-0.94141 1.2695-0.55078 0.72656zm10.602-15.148c-1.0156 1.5977 0.1875 3.6758 2.082 3.5859 0.75781-0.039062 1.4375-0.42969 1.8477-1.0742l0.83203-1.2969 0.87891-1.3828 0.80078-1.2891c0.98047-1.5977-0.20703-3.6406-2.082-3.5664-0.78516 0.039063-1.4648 0.4375-1.875 1.1016l-0.79297 1.2617-0.85937 1.3516-0.83203 1.2969zm9.4727-15.895c-0.48437 0.90625-0.33594 2.0078 0.375 2.7422 1.1016 1.1289 2.9688 0.86719 3.7227-0.51172l0.38281-0.69922 0.78516-1.4453 0.76562-1.4453 0.29688-0.55859c0.76562-1.4844-0.20703-3.2461-1.8672-3.3984-0.95312-0.074219-1.8281 0.41016-2.2695 1.25l-0.28125 0.53125-0.75781 1.418-0.76562 1.418-0.38281 0.69922zm8.2891-16.52c-0.78516 1.7539 0.75781 3.6484 2.6328 3.2383 0.72656-0.16797 1.3086-0.63281 1.625-1.3242l0.61719-1.3633 0.65234-1.4766 0.63281-1.4453c0.66406-1.5195-0.42969-3.2188-2.0898-3.2656-0.95313-0.019532-1.8125 0.53125-2.1914 1.3984l-0.625 1.418-0.64453 1.4453-0.61719 1.3633zm7.0547-17.098c-0.66406 1.8281 1.0469 3.6133 2.9023 3.0234 0.69141-0.22266 1.2227-0.73828 1.4766-1.4102l0.12109-0.32812 0.55078-1.5039 0.54297-1.5039 0.39063-1.1094c0.42969-1.2422-0.24219-2.5859-1.4922-2.9883-1.2148-0.38281-2.4922 0.26172-2.9102 1.457l-0.38281 1.082-0.53125 1.4766-0.54297 1.4766-0.12109 0.32812zm5.7695-17.566c-0.29688 1.0547 0.16797 2.1562 1.1289 2.6875 1.3242 0.71094 2.9414 0.027344 3.3594-1.4102l0.16016-0.54297 0.42969-1.5195 0.42188-1.5195 0.26172-0.96094c0.31641-1.2227-0.375-2.4727-1.5859-2.8359-1.2695-0.38281-2.5859 0.36328-2.9297 1.6328l-0.25391 0.93359-0.41016 1.4922-0.42188 1.4922-0.16016 0.54297zm4.4531-17.949c-0.23438 1.1758 0.42969 2.3242 1.5664 2.6875 1.3242 0.42188 2.7148-0.38281 3.0039-1.7461l0.12109-0.57812 0.30859-1.5312 0.29688-1.5312 0.1875-0.96875c0.34375-1.875-1.5664-3.3516-3.293-2.5391-0.67969 0.32812-1.1484 0.94141-1.2891 1.6797l-0.17578 0.94141-0.29688 1.5039-0.30859 1.5039zm3.1094-18.227c-0.19531 1.6055 1.2148 2.9102 2.8008 2.5859 0.96875-0.20703 1.6992-1 1.8281-1.9805l0.066406-0.46484 0.19531-1.5391 0.1875-1.5391 0.12891-1.1211c0.19531-1.8672-1.7344-3.1836-3.3984-2.3242-0.69141 0.36328-1.1484 1.0352-1.2422 1.8125l-0.12109 1.0938-0.1875 1.5117-0.19531 1.5117-0.066406 0.46484zm1.7461-18.406c-0.066407 1.2422 0.83984 2.3164 2.082 2.4531 1.3359 0.14062 2.5-0.84766 2.5859-2.1836l0.007813-0.23438 0.085937-1.5391 0.074219-1.5391 0.054687-1.3828c0.066407-1.8672-1.9688-3.0508-3.5664-2.0703-0.66406 0.41016-1.0625 1.1211-1.1016 1.8945l-0.054688 1.3516-0.074218 1.5117-0.085938 1.5117-0.007812 0.23438zm0.375-18.469c0.027343 1.0352 0.71875 1.9219 1.7188 2.2031 1.5117 0.41016 2.9766-0.73828 2.9492-2.3047l-0.027344-1.4375-0.039062-1.5391-0.046875-1.5391-0.007813-0.19531c-0.085937-1.8867-2.2383-2.9023-3.7422-1.7656-0.60547 0.46484-0.94141 1.1758-0.91406 1.9492l0.007813 0.16797 0.046875 1.5117 0.039062 1.5117 0.027344 1.4375zm-0.98828-18.469c0.1875 1.875 2.3789 2.7734 3.8281 1.5664 0.58984-0.50391 0.89453-1.2305 0.82031-2.0078l-0.09375-1.0352-0.14844-1.5312-0.16016-1.5195-0.066406-0.59766c-0.19531-1.6797-2.0352-2.6055-3.5-1.7539-0.79297 0.47656-1.2422 1.3516-1.1367 2.2773l0.066406 0.57031 0.16016 1.5039 0.14844 1.5039 0.09375 1.0352zm-2.3438-18.348c0.30859 1.8125 2.5 2.5742 3.8633 1.3438 0.59766-0.53125 0.86719-1.3242 0.73828-2.1172l-0.09375-0.58984-0.26172-1.5117-0.26953-1.5117-0.1875-1.0273c-0.34375-1.8203-2.5664-2.5391-3.9102-1.25-0.57031 0.55078-0.82031 1.3242-0.67969 2.1094l0.1875 1 0.26172 1.4844 0.25391 1.4844 0.09375 0.58984zm-3.6875-18.125c0.48438 1.9414 2.9961 2.4258 4.1719 0.80078 0.39062-0.55859 0.53125-1.2422 0.36328-1.9023l-0.40234-1.625-0.375-1.4844-0.375-1.4648c-0.25391-0.96875-1.0938-1.6602-2.0898-1.7344-1.6055-0.10156-2.8203 1.3633-2.418 2.9219l0.375 1.4375 0.36328 1.457 0.39062 1.5977zm-5.0039-17.789c0.52344 1.5781 2.4531 2.1289 3.7227 1.0547 0.72656-0.61719 1.0078-1.5977 0.71094-2.5l-0.36328-1.1289-0.47656-1.457-0.48438-1.4453-0.14844-0.4375c-0.26953-0.77344-0.90625-1.3359-1.6992-1.5117-1.793-0.38281-3.293 1.3164-2.707 3.043l0.14062 0.41016 0.47656 1.4297 0.46484 1.4297 0.36328 1.1289zm-6.3008-17.387c0.46484 1.1211 1.6797 1.6992 2.8477 1.3516 1.3164-0.40234 1.9961-1.8398 1.4766-3.1094l-0.26953-0.67969-0.57812-1.418-0.58984-1.418-0.35547-0.83984c-0.72656-1.6875-3.0352-1.9141-4.0781-0.39062-0.44922 0.67188-0.53125 1.4922-0.21484 2.2305l0.34375 0.8125 0.57812 1.3906 0.57031 1.3906zm-7.5586-16.883c0.78516 1.5781 2.9492 1.7539 3.9844 0.33594 0.50391-0.71094 0.58984-1.6133 0.20703-2.4062l-0.14062-0.28125-0.67969-1.3711-0.69141-1.3711-0.60547-1.1758c-0.63281-1.2148-2.1367-1.625-3.3047-0.91406-1.0352 0.64453-1.3984 1.9688-0.84766 3.0508l0.59766 1.1562 0.67969 1.3438 0.67188 1.3516 0.14062 0.28125zm-8.7734-16.27c0.91406 1.5312 3.1445 1.5117 4.0312-0.039062 0.42187-0.74609 0.41016-1.6133-0.019532-2.3516l-0.74609-1.2617-0.79297-1.3242-0.88672-1.457c-0.44922-0.71094-1.2148-1.1211-2.0547-1.1016-1.8008 0.054687-2.8555 2.0352-1.9141 3.5664l0.85938 1.4102 0.77344 1.2969 0.74609 1.2617zm-9.957-15.586c0.47656 0.67969 1.25 1.0469 2.082 0.98828 1.8125-0.14062 2.7812-2.1758 1.7461-3.668l-0.67188-0.96094-0.89453-1.2695-0.89453-1.2617-0.25391-0.35547c-0.64453-0.87891-1.793-1.1953-2.8008-0.77344-1.3828 0.58984-1.8555 2.3047-0.98047 3.5195l0.24219 0.32812 0.88672 1.2422 0.87891 1.2422 0.67188 0.96094zm-11.09-14.801c1.0352 1.25 2.957 1.1094 3.8086-0.26953 0.50391-0.85938 0.4375-1.9023-0.1875-2.6797l-0.61719-0.76562-0.98828-1.2031-1-1.2031-0.39063-0.46484c-0.67187-0.79297-1.7656-1.0469-2.7148-0.63281-1.4297 0.64453-1.8477 2.4453-0.84766 3.6484l0.375 0.44922 0.98047 1.1758 0.96875 1.1836 0.61719 0.76562zm-12.152-13.934c0.98828 1.0352 2.6328 0.96094 3.5273-0.16016 0.71875-0.91406 0.65234-2.2031-0.14062-3.043l-0.63281-0.67188-1.082-1.1367-1.0938-1.1289-0.44922-0.45703c-0.59766-0.60547-1.4453-0.83203-2.2695-0.61719-1.7266 0.47656-2.3047 2.6055-1.0625 3.8906l0.42969 0.4375 1.0742 1.1094 1.0625 1.1211 0.63281 0.67188zm-13.152-12.992c1.3438 1.2148 3.4727 0.51172 3.8555-1.25 0.16797-0.8125-0.10156-1.6445-0.71875-2.2031l-0.75781-0.69141-1.1758-1.0625-1.1836-1.0547-0.38281-0.33594c-1.3633-1.1836-3.4805-0.45703-3.8281 1.3242-0.14844 0.82031 0.12891 1.6328 0.75781 2.1836l0.36328 0.31641 1.168 1.0352 1.1562 1.0469 0.75781 0.69141zm-14.086-11.984c0.86719 0.67188 2.0547 0.65234 2.9023-0.027344 1.168-0.95312 1.1484-2.7266-0.039062-3.6484l-1.0469-0.82031-1.2695-0.98047-1.4102-1.0742c-0.87891-0.65234-2.082-0.61719-2.9102 0.09375-1.1367 0.96875-1.082 2.7422 0.11328 3.6406l1.3633 1.0469 1.25 0.96875 1.0469 0.82031zm-14.934-10.922c1.2695 0.84766 2.9883 0.28125 3.5-1.1562 0.35547-1.0078-0.007813-2.1094-0.89453-2.7148l-0.22266-0.16016-1.3516-0.90625-1.3633-0.89453-0.98828-0.64453c-1.3828-0.88672-3.2109-0.12109-3.5547 1.4844-0.19531 0.95312 0.20703 1.9023 1.0156 2.4375l0.96094 0.625 1.3359 0.87891 1.3242 0.88672 0.22266 0.16016zm-15.68-9.7812c1.3242 0.73828 2.957 0.074219 3.3984-1.3711 0.29688-1.0469-0.14844-2.1484-1.082-2.6797l-0.96094-0.55078-1.4375-0.8125-1.4375-0.80078-0.28125-0.14844c-0.90625-0.48438-2.0078-0.33594-2.7422 0.375-1.1289 1.1016-0.86719 2.9688 0.51172 3.7227l0.25391 0.14062 1.4102 0.78516 1.4102 0.79297 0.96094 0.55078zm-16.363-8.6328c1.1367 0.55078 2.5117 0.085937 3.0898-1.0352 0.59766-1.168 0.12109-2.6055-1.0625-3.1641l-0.24219-0.12109-1.4648-0.69922-1.4648-0.69141-1.082-0.49609c-1.6719-0.76563-3.5273 0.61719-3.2852 2.4375 0.11328 0.80078 0.60547 1.4648 1.3438 1.8125l1.0547 0.48437 1.4375 0.67188 1.4375 0.67969 0.24219 0.12109zm-16.941-7.4023c1.6719 0.64453 3.4062-0.72656 3.1562-2.5117-0.12109-0.83984-0.67188-1.5312-1.4648-1.8398l-0.72656-0.28906-1.4922-0.57812-1.4922-0.57031-0.67969-0.25391c-1.5664-0.57031-3.1914 0.61719-3.1367 2.2852 0.046875 0.94141 0.63281 1.7656 1.5195 2.0898l0.65234 0.24219 1.4648 0.55859 1.4648 0.57031 0.72656 0.28906zm-17.445-6.1328c1.5977 0.48438 3.1562-0.80078 3.0039-2.4531-0.10156-0.95313-0.72656-1.7188-1.6445-2.0078l-1.0078-0.30859-1.5117-0.45703-1.5195-0.44922-0.46484-0.14062c-1.0547-0.29688-2.1562 0.16797-2.6875 1.1289-0.71094 1.3242-0.027344 2.9414 1.4102 3.3594l0.4375 0.12891 1.4922 0.4375 1.4844 0.44922 1.0078 0.30859zm-17.844-4.8242c1.4922 0.32812 2.8828-0.82031 2.8477-2.3438-0.039062-1.0625-0.77344-1.9688-1.8203-2.2031l-1.1016-0.25391-1.5312-0.34375-1.9688-0.42187c-1.1758-0.23438-2.3242 0.42969-2.6875 1.5664-0.42188 1.3242 0.38281 2.7148 1.7461 3.0039l0.41016 0.085938 1.5039 0.32812 1.5039 0.33594 1.1016 0.25391zm-18.164-3.4805c1.6523 0.23438 3.0039-1.25 2.6055-2.875-0.23437-0.91406-0.98047-1.5977-1.9219-1.7344l-1.0352-0.16016-1.5391-0.22266-1.5391-0.21484-0.55078-0.074219c-1.082-0.14062-2.1016 0.47656-2.4922 1.4922-0.52344 1.4102 0.39062 2.9297 1.8867 3.125l0.52344 0.066407 1.5117 0.21484 1.5117 0.22266 1.0352 0.16016zm-18.367-2.1172c0.84766 0.066406 1.6328-0.32813 2.1094-1.0273 0.98828-1.4922 0.019531-3.4805-1.7656-3.6211l-0.83203-0.066406-1.5391-0.11328-1.5391-0.10156-0.78516-0.046875c-1.2422-0.066406-2.3164 0.83984-2.4531 2.082-0.14062 1.3359 0.84766 2.5 2.1836 2.5859l0.74609 0.046875 1.5117 0.10156 1.5117 0.11328 0.83203 0.066407zm-18.48-0.75781c1.7656 0 2.8945-1.875 2.0625-3.4258-0.41016-0.76562-1.1836-1.2305-2.0547-1.2422h-2.0703l-1.5391 0.007813-1.1016 0.019531c-0.75781 0.019531-1.4453 0.38281-1.875 1-1.0742 1.5664 0.054688 3.6875 1.9492 3.668l1.0742-0.019531 1.5117-0.007813zm-18.48 0.60547c1.8945-0.14062 2.8359-2.332 1.6445-3.8086-0.48438-0.58984-1.2031-0.89453-1.9688-0.84766l-1.6797 0.12109-1.5312 0.12109-1.4844 0.12891c-1.9141 0.17578-2.8086 2.4375-1.5312 3.8828 0.50391 0.55078 1.2031 0.83203 1.9414 0.76562l1.457-0.12109 1.5039-0.12109 1.6523-0.12109zm-18.379 1.9688c0.83984-0.12891 1.5312-0.69141 1.8398-1.4844 0.61719-1.6797-0.76562-3.3867-2.5312-3.125l-1.2305 0.17578-1.5117 0.23438-1.5117 0.24219-0.39062 0.066407c-1.1289 0.19531-1.9492 1.168-1.9492 2.3164 0.019532 1.4453 1.2969 2.5195 2.7148 2.2852l0.375-0.066406 1.4844-0.23438 1.4844-0.22266 1.2305-0.17578zm-18.199 3.3125c1.625-0.375 2.3516-2.25 1.3984-3.6211-0.55078-0.77344-1.4844-1.1367-2.418-0.93359l-0.76562 0.16797-1.4922 0.33594-1.4922 0.34375-0.83984 0.20703c-1.9414 0.48438-2.4258 2.9961-0.80078 4.1719 0.55859 0.39062 1.2422 0.53125 1.9023 0.36328l0.8125-0.19531 1.4648-0.34375 1.4648-0.33594 0.76562-0.16797zm-17.902 4.6367c1.3438-0.41016 2.0156-1.8672 1.4766-3.1562-0.47656-1.0938-1.6719-1.6523-2.8203-1.3164l-0.30859 0.09375-1.4648 0.44922-1.4648 0.45703-1.2695 0.40234c-1.875 0.60547-2.2109 3.1094-0.55078 4.1797 0.59766 0.375 1.2969 0.47656 1.9688 0.26172l1.2422-0.39062 1.4375-0.44922 1.4375-0.4375 0.30859-0.09375zm-17.5 5.9375c1.6133-0.63281 2.0078-2.7344 0.72656-3.9102-0.66406-0.58984-1.5781-0.76562-2.4062-0.44922l-1.2891 0.49609-1.4297 0.55859-1.4297 0.57031-0.25391 0.10156c-1.1211 0.46484-1.6992 1.6797-1.3516 2.8477 0.40234 1.3164 1.8398 1.9961 3.1094 1.4766l0.22266-0.09375 1.3984-0.55859 1.3984-0.55078 1.2891-0.49609zm-17.035 7.2148c1.6875-0.79297 1.8008-3.1562 0.19531-4.1172-0.67188-0.39062-1.4844-0.4375-2.1914-0.10156l-0.84766 0.40234-1.3906 0.66406-1.3828 0.67188-0.625 0.30859c-1.5781 0.78516-1.7539 2.9492-0.33594 3.9844 0.71094 0.50391 1.6133 0.58984 2.4062 0.20703l0.59766-0.29688 1.3516-0.65234 1.3633-0.64453 0.84766-0.40234zm-16.453 8.4453c0.88672-0.50391 1.3438-1.5039 1.1367-2.4922-0.31641-1.5586-2.043-2.3516-3.4336-1.5664l-0.48438 0.26953-1.3438 0.75781-1.3359 0.76562-0.92578 0.54297c-0.71094 0.42188-1.1289 1.1484-1.1484 1.9688-0.027343 1.8281 1.9336 2.9766 3.5195 2.0547l0.90625-0.52344 1.3086-0.75781 1.3164-0.74609 0.48438-0.26953zm-15.781 9.6328c1.418-0.95312 1.3828-3.0234-0.066407-3.9297-0.78516-0.47656-1.7461-0.46484-2.5195 0.039062l-0.19531 0.12891-1.2891 0.85938-1.2773 0.86719-1.1367 0.78516c-1.5117 1.0469-1.2695 3.3516 0.42188 4.0703 0.74609 0.30859 1.5586 0.22266 2.2305-0.23438l1.1094-0.76562 1.2617-0.84766 1.2617-0.83984 0.19531-0.12891zm-15.027 10.781c0.67188-0.52344 1-1.3438 0.87891-2.1836-0.26172-1.7656-2.3242-2.6055-3.7422-1.5117l-1.2305 0.96094-1.2227 0.96094-1.25 1c-1.25 1.0273-1.1094 2.957 0.26953 3.8086 0.85938 0.50391 1.9023 0.4375 2.6797-0.1875l1.2031-0.96875 1.1953-0.94141 1.2148-0.94141zm-14.176 11.852c1.3828-1.2695 0.78516-3.5547-1.0352-3.9961-0.75781-0.17578-1.5312 0.027344-2.1094 0.55078l-1.0742 0.96875-1.1562 1.0625-1.2422 1.1484c-1.0352 0.98828-0.96094 2.6328 0.16016 3.5273 0.91406 0.71875 2.2031 0.65234 3.043-0.14062l1.1953-1.1094 1.1367-1.0469 1.0742-0.96875zm-13.262 12.879c1.2891-1.3633 0.52344-3.6016-1.3359-3.9102-0.76563-0.12109-1.5312 0.14062-2.0625 0.69922l-1.0352 1.0938-1.082 1.1562-1.1016 1.1836c-1.2148 1.3438-0.51172 3.4727 1.25 3.8555 0.8125 0.16797 1.6445-0.10156 2.2031-0.71875l1.0547-1.1367 1.0625-1.1289 1.0352-1.0938zm-12.273 13.84c1.1562-1.418 0.31641-3.5469-1.5039-3.7969-0.80078-0.10156-1.5859 0.20703-2.1094 0.83203l-0.11328 0.14062-1.0078 1.2422-1.0078 1.25-0.83203 1.0469c-0.53125 0.67969-0.65234 1.5859-0.30859 2.3789 0.71094 1.6133 2.875 1.8945 3.9648 0.51172l0.8125-1.0156 0.98828-1.2227 0.98828-1.2148 0.11328-0.14063zm-11.211 14.699c0.95312-1.3711 0.22266-3.2461-1.3984-3.6211-0.92578-0.19531-1.8672 0.16016-2.418 0.93359l-0.375 0.53125-0.92578 1.3242-0.92578 1.3359-0.45703 0.67969c-0.84766 1.2695-0.28125 2.9883 1.1562 3.5 1.0078 0.35547 2.1094-0.007812 2.7148-0.89453l0.44922-0.65234 0.90625-1.3164 0.91406-1.3086 0.375-0.53125zm241.93 82.555c-6.2812 6.2812-14.254 10.875-23.164 13.047 0.30859 0.074219 0.625 0.16016 0.93359 0.24219 8.457 2.2695 16.305 6.7656 22.598 13.242-2.5742-8.8008-2.5742-17.984-0.28125-26.562l0.019531-0.074219zm-33.441 14.422c-0.47656 0.007813-0.95312 0.019531-1.4297 0.019531-0.53125 0-1.0625-0.007812-1.5977-0.027344-7.4297 0.22266-14.906 2.2383-21.793 6.2148-5.8438 3.3711-10.668 7.8203-14.391 12.945-0.61719 1.3242-1.2969 2.6328-2.0352 3.9219v0.007812c-0.8125 1.4102-1.6875 2.7734-2.6211 4.0703-1.0742 2.3633-1.9492 4.8086-2.6211 7.3086-2.5312 9.4531-2.1016 19.703 1.6992 29.223 1.2969 1.6992 2.5117 3.5 3.6016 5.4023 1.1367 1.9805 2.1289 4.0039 2.9688 6.0586 6.3672 8.1562 15.082 13.719 24.602 16.27 1.7539 0.46484 3.5391 0.83984 5.3398 1.1016 2.2773-0.31641 4.6016-0.48438 6.9609-0.48438 2.2852 0 4.5273 0.16016 6.7305 0.45703 5.5703-0.84766 11.09-2.7266 16.258-5.7109h0.007813c5.7969-3.3516 10.602-7.7578 14.309-12.844 0.73828-1.6719 1.5664-3.3242 2.5-4.9453v-0.007812c0.83203-1.4375 1.7266-2.8203 2.668-4.1445 0.87891-2.043 1.6055-4.1523 2.1836-6.3008 2.9102-10.883 1.9023-22.82-3.6602-33.488-0.4375-0.67188-0.85938-1.3633-1.2617-2.0703-0.33594-0.58984-0.66406-1.1758-0.98047-1.7734-6.4688-9.9961-16.211-16.734-26.992-19.629-3.4141-0.91406-6.9336-1.4453-10.48-1.5664zm-36.289-14.422-0.054688-0.054688 0.039063 0.14063c2.2383 8.3711 2.2852 17.324-0.10156 25.938 2.9766-2.9688 6.3828-5.6094 10.203-7.8125 4.1523-2.3984 8.5039-4.1172 12.938-5.207-8.8555-2.1836-16.762-6.7578-23.008-13.012zm104.67 60.348c-8.457-2.2695-16.305-6.7656-22.598-13.254 2.5469 8.6992 2.5742 17.77 0.36328 26.254 6.2422-6.3203 13.98-10.715 22.297-12.945l0.085937-0.019532-0.14844-0.039062zm-139.55 0.11328-0.085937 0.019531 0.14844 0.039062c8.0625 2.1562 15.578 6.3555 21.711 12.355-2.0703-8.2422-1.9219-16.754 0.21484-24.734l0.12109-0.42969c-6.207 6.2148-13.871 10.547-22.109 12.75zm34.926 60.441-0.019532 0.074218 0.10156-0.10156c5.8164-5.8164 13.086-10.191 21.215-12.523-7.8203-2.2031-15.109-6.3359-21.086-12.188 2.0703 8.2422 1.9219 16.754-0.21484 24.734zm69.805-0.027344 0.054688 0.054688-0.039063-0.14063c-2.1758-8.1289-2.2852-16.82-0.09375-25.199-3.0234 3.0508-6.4961 5.75-10.398 8.0078l-0.33594 0.19531h-0.007812c-3.4336 1.9492-7.0078 3.4453-10.648 4.4883 8.2227 2.3164 15.578 6.7188 21.457 12.59z"/>
  <use x="70" y="560.140625" xlink:href="#w"/>
  <use x="70.035156" y="560.140625" xlink:href="#e"/>
  <use x="70.058594" y="560.140625" xlink:href="#b"/>
  <use x="70.089844" y="560.140625" xlink:href="#a"/>
  <use x="70.121094" y="560.140625" xlink:href="#d"/>
  <use x="70.144531" y="560.140625" xlink:href="#b"/>
  <use x="70.175781" y="560.140625" xlink:href="#l"/>
  <use x="70.222656" y="560.140625" xlink:href="#k"/>
  <use x="70.257812" y="560.140625" xlink:href="#j"/>
  <use x="70.304688" y="560.140625" xlink:href="#i"/>
  <use x="70.34375" y="560.140625" xlink:href="#v"/>
  <use x="70.359375" y="560.140625" xlink:href="#b"/>
  <use x="70.390625" y="560.140625" xlink:href="#f"/>
  <use x="70.425781" y="560.140625" xlink:href="#a"/>
  <use x="70.472656" y="560.140625" xlink:href="#h"/>
  <use x="70.507812" y="560.140625" xlink:href="#a"/>
  <use x="70.539062" y="560.140625" xlink:href="#f"/>
  <use x="70.570312" y="560.140625" xlink:href="#a"/>
  <use x="70.601562" y="560.140625" xlink:href="#g"/>
  <use x="70.628906" y="560.140625" xlink:href="#c"/>
  <use x="70.664062" y="560.140625" xlink:href="#u"/>
  <use x="70.691406" y="560.140625" xlink:href="#g"/>
  <use x="70.722656" y="560.140625" xlink:href="#t"/>
  <use x="70.75" y="560.140625" xlink:href="#a"/>
  <use x="70" y="560.1875" xlink:href="#s"/>
  <use x="70.019531" y="560.1875" xlink:href="#e"/>
  <use x="70.042969" y="560.1875" xlink:href="#c"/>
  <use x="70.074219" y="560.1875" xlink:href="#r"/>
  <use x="70.140625" y="560.1875" xlink:href="#d"/>
  <use x="70.164062" y="560.1875" xlink:href="#q"/>
  <use x="70.195312" y="560.1875" xlink:href="#b"/>
  <use x="70.242188" y="560.1875" xlink:href="#p"/>
  <use x="70.28125" y="560.1875" xlink:href="#c"/>
  <use x="70.316406" y="560.1875" xlink:href="#o"/>
  <use x="70.347656" y="560.1875" xlink:href="#f"/>
  <use x="70.398438" y="560.1875" xlink:href="#h"/>
  <use x="70.433594" y="560.1875" xlink:href="#e"/>
  <use x="70.453125" y="560.1875" xlink:href="#c"/>
  <use x="70.488281" y="560.1875" xlink:href="#n"/>
  <use x="70.503906" y="560.1875" xlink:href="#b"/>
  <use x="70.535156" y="560.1875" xlink:href="#m"/>
  <use x="70.5625" y="560.1875" xlink:href="#d"/>
 </g>
</svg>
